HIERARCHY
ROOT Junyuan_V1:Solving:Hips
{
	OFFSET 0.000000 0.000000 0.000000
	CHANNELS 6 Xposition Yposition Zposition Xrotation Yrotation Zrotation
	JOINT Junyuan_V1:Solving:Spine
	{
		OFFSET 0.000000 -11.180205 2.228564
		CHANNELS 6 Xposition Yposition Zposition Xrotation Yrotation Zrotation
		JOINT Junyuan_V1:Solving:Spine1
		{
			OFFSET 0.000000 -8.682996 1.531049
			CHANNELS 6 Xposition Yposition Zposition Xrotation Yrotation Zrotation
			JOINT Junyuan_V1:Solving:Spine2
			{
				OFFSET 0.000000 -8.783394 0.768450
				CHANNELS 6 Xposition Yposition Zposition Xrotation Yrotation Zrotation
				JOINT Junyuan_V1:Solving:Spine3
				{
					OFFSET 0.000000 -8.816944 0.000000
					CHANNELS 6 Xposition Yposition Zposition Xrotation Yrotation Zrotation
					JOINT Junyuan_V1:Solving:Neck
					{
						OFFSET 0.000000 -11.336071 -1.133605
						CHANNELS 6 Xposition Yposition Zposition Xrotation Yrotation Zrotation
						JOINT Junyuan_V1:Solving:Neck1
						{
							OFFSET 0.000000 -7.643246 -0.668695
							CHANNELS 6 Xposition Yposition Zposition Xrotation Yrotation Zrotation
							JOINT Junyuan_V1:Solving:Head
							{
								OFFSET 0.000000 -7.555870 -1.332303
								CHANNELS 6 Xposition Yposition Zposition Xrotation Yrotation Zrotation
								JOINT Junyuan_V1:Solving:HeadEnd
								{
									OFFSET 0.000000 -9.728081 0.000002
									CHANNELS 6 Xposition Yposition Zposition Xrotation Yrotation Zrotation
									End Site
									{
										OFFSET 0.000000 -9.728081 0.000002
									}
								}
							}
						}
					}
					JOINT Junyuan_V1:Solving:RightShoulder
					{
						OFFSET 0.000000 -8.097195 -5.270916
						CHANNELS 6 Xposition Yposition Zposition Xrotation Yrotation Zrotation
						JOINT Junyuan_V1:Solving:RightArm
						{
							OFFSET -20.762394 -0.000008 0.000000
							CHANNELS 6 Xposition Yposition Zposition Xrotation Yrotation Zrotation
							JOINT Junyuan_V1:Solving:RightForeArm
							{
								OFFSET -29.048946 -0.000008 0.000000
								CHANNELS 6 Xposition Yposition Zposition Xrotation Yrotation Zrotation
								JOINT Junyuan_V1:Solving:RightHand
								{
									OFFSET -22.031235 -0.000008 0.000000
									CHANNELS 6 Xposition Yposition Zposition Xrotation Yrotation Zrotation
									JOINT Junyuan_V1:Solving:RightHandThumb1
									{
										OFFSET -3.579254 2.890213 -2.661497
										CHANNELS 6 Xposition Yposition Zposition Xrotation Yrotation Zrotation
										End Site
										{
											OFFSET -5.229485 0.000000 -5.277840
										}
									}
									JOINT Junyuan_V1:Solving:RightHandMiddle1
									{
										OFFSET -9.544678 -0.000004 0.061184
										CHANNELS 6 Xposition Yposition Zposition Xrotation Yrotation Zrotation
										End Site
										{
											OFFSET -7.429878 -0.000004 0.000000
										}
									}
								}
							}
						}
					}
					JOINT Junyuan_V1:Solving:LeftShoulder
					{
						OFFSET 0.000000 -8.097195 -5.270916
						CHANNELS 6 Xposition Yposition Zposition Xrotation Yrotation Zrotation
						JOINT Junyuan_V1:Solving:LeftArm
						{
							OFFSET 20.762394 -0.000008 0.000000
							CHANNELS 6 Xposition Yposition Zposition Xrotation Yrotation Zrotation
							JOINT Junyuan_V1:Solving:LeftForeArm
							{
								OFFSET 29.048946 -0.000008 0.000000
								CHANNELS 6 Xposition Yposition Zposition Xrotation Yrotation Zrotation
								JOINT Junyuan_V1:Solving:LeftHand
								{
									OFFSET 22.031235 -0.000008 0.000000
									CHANNELS 6 Xposition Yposition Zposition Xrotation Yrotation Zrotation
									JOINT Junyuan_V1:Solving:LeftHandThumb1
									{
										OFFSET 3.579254 2.890213 -2.661497
										CHANNELS 6 Xposition Yposition Zposition Xrotation Yrotation Zrotation
										End Site
										{
											OFFSET 5.229485 0.000000 -5.277840
										}
									}
									JOINT Junyuan_V1:Solving:LeftHandMiddle1
									{
										OFFSET 9.544678 -0.000004 0.061184
										CHANNELS 6 Xposition Yposition Zposition Xrotation Yrotation Zrotation
										End Site
										{
											OFFSET 7.429878 -0.000004 0.000000
										}
									}
								}
							}
						}
					}
				}
			}
		}
	}
	JOINT Junyuan_V1:Solving:RightUpLeg
	{
		OFFSET -10.825166 0.000000 0.000000
		CHANNELS 6 Xposition Yposition Zposition Xrotation Yrotation Zrotation
		JOINT Junyuan_V1:Solving:RightLeg
		{
			OFFSET 0.000000 43.678444 -0.000006
			CHANNELS 6 Xposition Yposition Zposition Xrotation Yrotation Zrotation
			JOINT Junyuan_V1:Solving:RightFoot
			{
				OFFSET 0.000000 36.488441 -0.000006
				CHANNELS 6 Xposition Yposition Zposition Xrotation Yrotation Zrotation
				JOINT Junyuan_V1:Solving:RightForeFoot
				{
					OFFSET 0.000000 3.967834 -0.000000
					CHANNELS 6 Xposition Yposition Zposition Xrotation Yrotation Zrotation
					JOINT Junyuan_V1:Solving:RightToeBase
					{
						OFFSET 0.000000 0.000000 -15.539299
						CHANNELS 6 Xposition Yposition Zposition Xrotation Yrotation Zrotation
						JOINT Junyuan_V1:Solving:RightToeBaseEnd
						{
							OFFSET 0.000000 0.000000 -3.486985
							CHANNELS 6 Xposition Yposition Zposition Xrotation Yrotation Zrotation
							End Site
							{
								OFFSET 0.000000 -3.486992 0.000000
							}
						}
					}
				}
			}
		}
	}
	JOINT Junyuan_V1:Solving:LeftUpLeg
	{
		OFFSET 10.825166 0.000000 0.000000
		CHANNELS 6 Xposition Yposition Zposition Xrotation Yrotation Zrotation
		JOINT Junyuan_V1:Solving:LeftLeg
		{
			OFFSET 0.000000 43.678444 -0.000006
			CHANNELS 6 Xposition Yposition Zposition Xrotation Yrotation Zrotation
			JOINT Junyuan_V1:Solving:LeftFoot
			{
				OFFSET 0.000000 36.488441 -0.000006
				CHANNELS 6 Xposition Yposition Zposition Xrotation Yrotation Zrotation
				JOINT Junyuan_V1:Solving:LeftForeFoot
				{
					OFFSET 0.000000 3.967834 -0.000000
					CHANNELS 6 Xposition Yposition Zposition Xrotation Yrotation Zrotation
					JOINT Junyuan_V1:Solving:LeftToeBase
					{
						OFFSET 0.000000 0.000000 -15.539299
						CHANNELS 6 Xposition Yposition Zposition Xrotation Yrotation Zrotation
						JOINT Junyuan_V1:Solving:LeftToeBaseEnd
						{
							OFFSET 0.000000 0.000000 -3.974441
							CHANNELS 6 Xposition Yposition Zposition Xrotation Yrotation Zrotation
							End Site
							{
								OFFSET 0.000000 -3.974442 0.000000
							}
						}
					}
				}
			}
		}
	}
}
MOTION
Frames: 4
Frame Time: 0.041667
-55.206234 -34.187969 -89.556198 77.795308 173.083974 -0.150706 0.000006 -11.180218 2.228564 16.008118 -0.794468 -1.458250 0.000000 -8.683017 1.531053 1.913322 0.110483 -0.270957 -0.000003 -8.783407 0.768450 2.666914 -1.416709 -0.947317 0.000006 -8.816944 -0.000002 1.558625 0.232031 -0.807785 0.000007 -11.336100 -1.133601 -17.838005 -5.363532 2.555181 -0.000002 -7.643253 -0.668697 4.791716 -1.800776 0.589625 -0.000010 -7.555894 -1.332298 12.118795 -0.251272 0.705477 -0.000000 -9.728088 0.000006 -0.000004 -0.000002 0.000000 0.000008 -8.097225 -5.270902 0.000002 12.430170 11.489004 -20.762386 0.000019 -0.000012 -32.668081 -41.110799 -96.877197 -29.048923 -0.000008 0.000009 3.968448 -17.855612 1.218541 -22.031231 -0.000004 -0.000011 0.718409 -2.204615 18.054529 -3.579282 2.890209 -2.661494 0.000008 0.000002 0.000004 -9.544702 -0.000001 0.061188 0.000006 0.000001 -0.000001 0.000004 -8.097221 -5.270901 -0.000003 -13.091946 -11.723082 20.762396 -0.000001 -0.000005 -47.359978 50.017694 107.809707 29.048950 -0.000020 -0.000003 -5.708425 26.136030 2.521316 22.031244 -0.000017 0.000006 0.051795 0.583244 -5.075787 3.579276 2.890201 -2.661512 0.000007 -0.000009 -0.000002 9.544712 -0.000004 0.061173 0.000004 -0.000005 0.000005 -10.825157 -0.000014 0.000004 -16.687426 12.487438 0.216427 0.000010 43.678448 -0.000009 4.267351 0.000001 0.000000 -0.000002 36.488445 0.000006 6.582698 16.134461 1.751265 0.000006 3.967819 0.000001 -0.000000 -0.000002 -0.000000 -0.000009 -0.000015 -15.539298 10.011392 -0.000004 0.000000 0.000009 -0.000007 -3.486985 0.000002 -0.000005 0.000001 10.825159 -0.000022 0.000006 -24.572299 -15.688939 -4.999197 -0.000010 43.678440 -0.000008 15.653837 0.000002 0.000001 0.000014 36.488434 -0.000012 8.628748 6.578662 2.885588 -0.000003 3.967819 -0.000010 -0.000001 -0.000001 -0.000000 0.000014 -0.000003 -15.539296 -5.219373 -0.000001 0.000000 0.000001 -0.000008 -3.974439 -0.000000 0.000001 0.000000 
-55.269245 -33.941269 -89.498001 77.400291 173.556883 -0.012210 0.000009 -11.180210 2.228566 16.100667 -0.789047 -1.395381 0.000005 -8.682997 1.531055 1.998033 0.107604 -0.262184 -0.000001 -8.783395 0.768459 2.806009 -1.506429 -0.926197 0.000007 -8.816946 0.000003 1.579456 0.224942 -0.812136 0.000010 -11.336084 -1.133604 -17.908797 -5.423160 2.483902 -0.000001 -7.643226 -0.668690 4.795630 -1.792528 0.531836 -0.000001 -7.555881 -1.332318 12.026298 -0.243126 0.629901 -0.000004 -9.728104 -0.000012 -0.000001 0.000000 0.000001 0.000005 -8.097187 -5.270926 -0.000010 12.241426 11.468548 -20.762394 0.000009 -0.000003 -33.498526 -41.321869 -96.728470 -29.048918 -0.000010 -0.000003 3.406644 -18.197828 1.064998 -22.031208 -0.000024 -0.000009 0.840640 -2.516599 18.478325 -3.579258 2.890210 -2.661488 0.000008 -0.000000 0.000005 -9.544701 0.000004 0.061188 0.000001 -0.000001 -0.000000 0.000005 -8.097187 -5.270930 -0.000006 -13.143888 -11.763083 20.762390 -0.000024 0.000005 -47.739816 49.723234 107.616303 29.048973 -0.000038 -0.000004 -5.900956 26.220680 2.614667 22.031263 -0.000012 0.000004 0.042003 0.424436 -5.654157 3.579234 2.890186 -2.661524 0.000006 0.000005 -0.000006 9.544675 -0.000021 0.061158 -0.000001 -0.000006 -0.000004 -10.825157 0.000001 0.000001 -17.334916 12.295993 0.075536 0.000001 43.678467 -0.000005 4.410514 -0.000000 0.000000 -0.000016 36.488422 -0.000005 6.692733 15.892486 1.726662 0.000006 3.967819 -0.000003 0.000000 0.000002 -0.000000 0.000007 -0.000016 -15.539301 9.998681 -0.000001 -0.000000 0.000018 -0.000009 -3.486983 -0.000004 -0.000004 -0.000000 10.825187 -0.000017 0.000001 -24.925875 -16.116212 -5.317315 0.000007 43.678444 -0.000016 15.375488 -0.000001 0.000001 -0.000011 36.488422 -0.000006 9.465941 5.591855 2.803412 -0.000006 3.967842 0.000000 0.000002 0.000001 -0.000000 0.000001 -0.000007 -15.539295 -5.520131 0.000000 -0.000000 -0.000008 -0.000007 -3.974433 0.000001 0.000001 -0.000000 
-55.318066 -33.709557 -89.432312 77.022541 174.104814 0.133769 -0.000007 -11.180216 2.228559 16.175117 -0.735240 -1.291183 0.000002 -8.682994 1.531047 2.075862 0.102530 -0.238457 -0.000002 -8.783384 0.768449 2.990409 -1.659575 -0.910205 -0.000006 -8.816938 0.000005 1.609055 0.195876 -0.835670 0.000013 -11.336053 -1.133614 -17.985211 -5.462045 2.410728 0.000015 -7.643230 -0.668692 4.783056 -1.811449 0.467879 0.000001 -7.555890 -1.332293 11.919904 -0.237308 0.558823 -0.000009 -9.728096 0.000009 -0.000001 0.000001 -0.000000 0.000007 -8.097195 -5.270937 -0.000003 12.024538 11.469281 -20.762392 -0.000012 0.000010 -34.361476 -41.480241 -96.599311 -29.048935 -0.000011 0.000001 2.578566 -18.481623 0.817879 -22.031244 0.000000 -0.000009 0.943861 -2.788843 18.706882 -3.579257 2.890226 -2.661483 0.000011 -0.000003 0.000007 -9.544654 0.000003 0.061196 0.000011 0.000001 0.000001 0.000008 -8.097195 -5.270936 0.000003 -13.200758 -11.809396 20.762384 -0.000013 -0.000002 -48.106057 49.439003 107.381024 29.048954 -0.000027 -0.000008 -6.177323 26.258381 2.741525 22.031237 -0.000017 -0.000008 0.028639 0.259720 -6.293227 3.579240 2.890226 -2.661492 0.000007 0.000005 -0.000008 9.544678 0.000010 0.061188 0.000006 -0.000002 0.000000 -10.825171 -0.000018 -0.000011 -17.954658 12.088431 -0.119175 -0.000005 43.678452 -0.000008 4.549979 -0.000001 0.000000 0.000000 36.488411 -0.000006 6.796611 15.617619 1.729000 -0.000003 3.967827 -0.000001 0.000000 0.000008 -0.000000 -0.000008 0.000007 -15.539305 9.993338 0.000000 -0.000000 0.000009 0.000002 -3.486978 0.000005 -0.000002 -0.000001 10.825153 0.000002 -0.000008 -25.287792 -16.898218 -5.713198 0.000001 43.678448 -0.000010 15.081753 0.000002 0.000000 -0.000002 36.488445 -0.000000 10.391768 5.136182 2.649392 0.000008 3.967827 -0.000007 0.000001 0.000004 -0.000001 0.000000 -0.000011 -15.539308 -5.872564 0.000004 -0.000001 -0.000018 -0.000015 -3.974423 -0.000001 -0.000001 0.000000 
-55.365524 -33.475975 -89.363693 76.636362 174.634031 0.326052 -0.000006 -11.180203 2.228569 16.245352 -0.686283 -1.202943 0.000006 -8.682990 1.531046 2.139641 0.102850 -0.232290 0.000007 -8.783394 0.768455 3.162574 -1.781547 -0.918726 -0.000008 -8.816945 0.000016 1.655742 0.168269 -0.848106 -0.000001 -11.336050 -1.133626 -18.062142 -5.510547 2.324870 0.000005 -7.643270 -0.668703 4.775115 -1.817034 0.422039 0.000005 -7.555856 -1.332311 11.793785 -0.230679 0.488659 -0.000009 -9.728111 -0.000016 -0.000003 -0.000000 0.000001 0.000009 -8.097198 -5.270910 -0.000002 11.793974 11.499418 -20.762386 -0.000014 -0.000008 -35.349197 -41.405522 -96.567503 -29.048933 -0.000013 -0.000009 1.850251 -18.468985 0.586305 -22.031229 -0.000016 -0.000004 1.053692 -3.122546 18.657493 -3.579273 2.890205 -2.661498 0.000011 -0.000002 0.000005 -9.544720 -0.000008 0.061186 0.000016 -0.000001 -0.000004 0.000004 -8.097191 -5.270913 0.000003 -13.245668 -11.869453 20.762407 -0.000046 0.000013 -48.451019 49.149058 107.123417 29.048954 -0.000009 -0.000000 -6.544336 26.240666 2.903700 22.031218 -0.000005 -0.000006 0.010145 0.082854 -6.989407 3.579252 2.890183 -2.661471 0.000007 0.000009 -0.000003 9.544655 -0.000031 0.061190 0.000006 0.000002 -0.000000 -10.825165 -0.000021 0.000003 -18.553405 11.819894 -0.370592 0.000006 43.678436 0.000003 4.645132 0.000001 -0.000000 -0.000005 36.488438 -0.000004 6.950289 15.441724 1.745875 -0.000007 3.967827 0.000007 -0.000000 -0.000003 -0.000000 -0.000007 -0.000017 -15.539296 9.993736 -0.000005 -0.000000 0.000002 -0.000016 -3.486992 -0.000002 -0.000001 0.000000 10.825156 -0.000003 0.000001 -25.623689 -17.481270 -6.099759 -0.000009 43.678432 -0.000001 14.705898 -0.000002 0.000000 -0.000008 36.488438 -0.000003 11.241172 4.887684 2.574605 0.000009 3.967834 -0.000003 0.000002 0.000004 0.000000 0.000005 -0.000012 -15.539312 -5.515345 -0.000001 0.000000 0.000006 -0.000008 -3.974452 -0.000000 0.000001 -0.000000 
